<svg xmlns="http://www.w3.org/2000/svg" viewBox="0 0 24 24">
<path d="M 13.3125 13.871094 C 12.691406 13.871094 12.191406 13.367188 12.191406 12.75 L 12.191406 11.277344 C 12.195312 11.082031 12.054688 10.910156 11.863281 10.875 C 11.753906 10.859375 11.644531 10.890625 11.5625 10.964844 C 11.476562 11.035156 11.429688 11.140625 11.429688 11.25 L 11.429688 13.5 L 10.6875 13.5 L 10.6875 11.25 C 10.691406 10.925781 10.828125 10.621094 11.074219 10.40625 C 11.316406 10.195312 11.640625 10.097656 11.960938 10.140625 C 12.523438 10.222656 12.9375 10.710938 12.929688 11.277344 L 12.929688 12.75 C 12.929688 12.960938 13.101562 13.128906 13.3125 13.128906 Z M 13.3125 13.871094 "/>
</svg>
