<svg xmlns="http://www.w3.org/2000/svg" viewBox="0 0 24 24">
<path d="M 14.25 15.371094 C 13.632812 15.371094 13.132812 14.871094 13.128906 14.25 L 13.128906 9.777344 C 13.132812 9.582031 12.996094 9.410156 12.804688 9.375 C 12.695312 9.359375 12.585938 9.390625 12.503906 9.464844 C 12.421875 9.535156 12.375 9.640625 12.375 9.75 L 12.375 14.222656 C 12.378906 14.789062 11.964844 15.277344 11.402344 15.359375 C 11.082031 15.402344 10.757812 15.304688 10.515625 15.09375 C 10.273438 14.878906 10.132812 14.574219 10.132812 14.25 L 10.132812 9.75 C 10.140625 9.609375 10.070312 9.476562 9.949219 9.40625 C 9.828125 9.332031 9.679688 9.332031 9.558594 9.40625 C 9.4375 9.476562 9.367188 9.609375 9.375 9.75 L 9.375 14.222656 C 9.378906 14.789062 8.964844 15.277344 8.402344 15.359375 C 8.082031 15.402344 7.761719 15.304688 7.515625 15.09375 C 7.273438 14.878906 7.132812 14.574219 7.132812 14.25 L 7.132812 12.75 C 7.132812 12.648438 7.09375 12.550781 7.023438 12.480469 C 6.949219 12.410156 6.855469 12.371094 6.753906 12.371094 L 6.753906 11.628906 C 7.371094 11.628906 7.871094 12.132812 7.875 12.75 L 7.875 14.25 C 7.875 14.359375 7.921875 14.464844 8.003906 14.535156 C 8.085938 14.609375 8.195312 14.640625 8.304688 14.625 C 8.5 14.589844 8.636719 14.417969 8.632812 14.222656 L 8.632812 9.75 C 8.621094 9.34375 8.832031 8.960938 9.183594 8.75 C 9.535156 8.542969 9.972656 8.542969 10.324219 8.75 C 10.675781 8.960938 10.886719 9.34375 10.875 9.75 L 10.875 14.25 C 10.875 14.359375 10.921875 14.464844 11.003906 14.535156 C 11.085938 14.605469 11.195312 14.640625 11.304688 14.625 C 11.5 14.589844 11.636719 14.417969 11.632812 14.222656 L 11.632812 9.75 C 11.632812 9.425781 11.773438 9.121094 12.015625 8.90625 C 12.261719 8.695312 12.582031 8.597656 12.902344 8.640625 C 13.464844 8.722656 13.878906 9.210938 13.875 9.777344 L 13.875 14.25 C 13.875 14.359375 13.921875 14.464844 14.003906 14.535156 C 14.085938 14.609375 14.195312 14.640625 14.304688 14.625 C 14.5 14.589844 14.636719 14.417969 14.632812 14.222656 L 14.632812 9.75 C 14.632812 9.425781 14.773438 9.121094 15.015625 8.90625 C 15.257812 8.695312 15.582031 8.597656 15.902344 8.640625 C 16.464844 8.722656 16.878906 9.210938 16.875 9.777344 L 16.875 11.25 C 16.875 11.351562 16.914062 11.449219 16.984375 11.519531 C 17.054688 11.589844 17.152344 11.628906 17.253906 11.628906 L 17.253906 12.371094 C 16.632812 12.371094 16.132812 11.867188 16.132812 11.25 L 16.132812 9.777344 C 16.136719 9.582031 16 9.410156 15.804688 9.375 C 15.695312 9.359375 15.585938 9.394531 15.503906 9.464844 C 15.421875 9.535156 15.375 9.640625 15.375 9.75 L 15.375 14.222656 C 15.378906 14.789062 14.964844 15.277344 14.402344 15.359375 C 14.351562 15.367188 14.300781 15.371094 14.25 15.371094 Z M 14.25 15.371094 "/>
</svg>
