<svg xmlns="http://www.w3.org/2000/svg" viewBox="0 0 24 24">
<path d="M 12.191406 13.871094 C 11.914062 13.871094 11.660156 13.777344 11.449219 13.597656 C 11.207031 13.386719 11.070312 13.078125 11.070312 12.75 L 11.070312 11.25 C 11.070312 11.035156 10.898438 10.867188 10.6875 10.867188 L 10.6875 10.128906 C 11.300781 10.128906 11.808594 10.625 11.808594 11.25 L 11.808594 12.75 C 11.808594 12.855469 11.851562 12.964844 11.9375 13.035156 C 12.019531 13.109375 12.128906 13.144531 12.234375 13.132812 C 12.414062 13.109375 12.5625 12.929688 12.5625 12.730469 L 12.5625 10.507812 L 13.300781 10.507812 L 13.300781 12.730469 C 13.300781 13.300781 12.890625 13.800781 12.328125 13.871094 C 12.285156 13.863281 12.242188 13.871094 12.191406 13.871094 Z M 12.191406 13.871094 "/>
</svg>
