<svg xmlns="http://www.w3.org/2000/svg" viewBox="0 0 24 24">
<path d="M 13.125 21.800781 L 12.382812 21.800781 L 12.382812 17.878906 C 12.382812 17.257812 12.882812 16.757812 13.503906 16.757812 L 15.003906 16.757812 C 15.203125 16.746094 15.363281 16.578125 15.363281 16.378906 C 15.363281 16.175781 15.203125 16.007812 15.003906 15.996094 L 13.5 15.996094 C 12.882812 15.996094 12.378906 15.496094 12.378906 14.878906 C 12.378906 14.257812 12.882812 13.757812 13.5 13.757812 L 18 13.757812 C 18.136719 13.765625 18.265625 13.699219 18.34375 13.585938 C 18.417969 13.46875 18.425781 13.324219 18.363281 13.203125 C 18.300781 13.082031 18.175781 13.003906 18.039062 12.996094 C 18.027344 12.996094 18.011719 12.996094 18 12.996094 L 13.5 12.996094 C 12.894531 12.980469 12.414062 12.484375 12.414062 11.878906 C 12.414062 11.273438 12.894531 10.777344 13.5 10.757812 L 20.25 10.757812 C 20.460938 10.757812 20.628906 10.585938 20.628906 10.378906 C 20.628906 10.167969 20.460938 9.996094 20.25 9.996094 L 13.5 9.996094 C 12.894531 9.976562 12.414062 9.480469 12.414062 8.875 C 12.414062 8.269531 12.894531 7.773438 13.5 7.757812 L 18 7.757812 C 18.136719 7.765625 18.265625 7.699219 18.34375 7.585938 C 18.417969 7.472656 18.425781 7.324219 18.363281 7.203125 C 18.300781 7.082031 18.175781 7.003906 18.039062 6.996094 C 18.027344 6.996094 18.011719 6.996094 18 6.996094 L 13.5 6.996094 C 12.882812 6.996094 12.378906 6.496094 12.378906 5.878906 C 12.378906 5.257812 12.882812 4.757812 13.5 4.757812 L 15 4.757812 C 15.203125 4.746094 15.359375 4.578125 15.359375 4.375 C 15.359375 4.175781 15.203125 4.007812 15 3.996094 L 8.996094 3.996094 C 8.792969 4.007812 8.636719 4.175781 8.636719 4.375 C 8.636719 4.578125 8.792969 4.746094 8.996094 4.757812 L 10.5 4.757812 C 11.121094 4.757812 11.621094 5.257812 11.621094 5.878906 C 11.621094 6.496094 11.121094 6.996094 10.5 6.996094 L 6 6.996094 C 5.792969 6.988281 5.613281 7.148438 5.601562 7.355469 C 5.589844 7.566406 5.75 7.746094 5.960938 7.757812 L 10.5 7.757812 C 11.105469 7.773438 11.585938 8.269531 11.585938 8.875 C 11.585938 9.480469 11.105469 9.976562 10.5 9.996094 L 3.75 9.996094 C 3.539062 9.996094 3.371094 10.167969 3.371094 10.378906 C 3.371094 10.585938 3.539062 10.757812 3.75 10.757812 L 10.5 10.757812 C 11.105469 10.777344 11.585938 11.273438 11.585938 11.878906 C 11.585938 12.484375 11.105469 12.980469 10.5 12.996094 L 6 12.996094 C 5.792969 12.988281 5.613281 13.148438 5.601562 13.355469 C 5.589844 13.566406 5.75 13.746094 5.960938 13.757812 L 10.5 13.757812 C 11.121094 13.757812 11.621094 14.257812 11.621094 14.878906 C 11.621094 15.496094 11.121094 15.996094 10.5 15.996094 L 8.996094 15.996094 C 8.792969 16.007812 8.636719 16.175781 8.636719 16.378906 C 8.636719 16.578125 8.792969 16.746094 8.996094 16.757812 L 10.5 16.757812 C 11.121094 16.753906 11.625 17.253906 11.625 17.875 L 11.625 21.800781 L 10.886719 21.800781 L 10.886719 17.878906 C 10.886719 17.667969 10.714844 17.5 10.507812 17.496094 L 8.996094 17.496094 C 8.390625 17.480469 7.910156 16.984375 7.910156 16.378906 C 7.910156 15.773438 8.390625 15.277344 8.996094 15.257812 L 10.5 15.257812 C 10.710938 15.257812 10.878906 15.085938 10.878906 14.878906 C 10.878906 14.667969 10.710938 14.496094 10.5 14.496094 L 6 14.496094 C 5.382812 14.515625 4.867188 14.027344 4.847656 13.410156 C 4.828125 12.792969 5.3125 12.277344 5.933594 12.257812 C 5.953125 12.257812 5.976562 12.257812 6 12.257812 L 10.5 12.257812 C 10.703125 12.246094 10.859375 12.078125 10.859375 11.878906 C 10.859375 11.675781 10.703125 11.507812 10.5 11.496094 L 3.75 11.496094 C 3.132812 11.496094 2.628906 10.996094 2.628906 10.378906 C 2.628906 9.757812 3.132812 9.257812 3.75 9.257812 L 10.5 9.257812 C 10.703125 9.246094 10.859375 9.078125 10.859375 8.875 C 10.859375 8.675781 10.703125 8.507812 10.5 8.496094 L 6 8.496094 C 5.382812 8.515625 4.867188 8.03125 4.847656 7.410156 C 4.828125 6.792969 5.3125 6.277344 5.933594 6.257812 L 10.5 6.257812 C 10.710938 6.257812 10.878906 6.085938 10.878906 5.878906 C 10.878906 5.667969 10.710938 5.496094 10.5 5.496094 L 8.996094 5.496094 C 8.390625 5.476562 7.910156 4.980469 7.910156 4.375 C 7.910156 3.769531 8.390625 3.273438 8.996094 3.257812 L 14.996094 3.257812 C 15.601562 3.273438 16.082031 3.769531 16.082031 4.375 C 16.082031 4.980469 15.601562 5.476562 14.996094 5.496094 L 13.5 5.496094 C 13.289062 5.496094 13.121094 5.667969 13.121094 5.878906 C 13.121094 6.085938 13.289062 6.257812 13.5 6.257812 L 18 6.257812 C 18.402344 6.242188 18.777344 6.445312 18.988281 6.785156 C 19.199219 7.128906 19.214844 7.554688 19.023438 7.90625 C 18.832031 8.261719 18.46875 8.484375 18.070312 8.496094 L 13.5 8.496094 C 13.296875 8.507812 13.140625 8.675781 13.140625 8.875 C 13.140625 9.078125 13.296875 9.246094 13.5 9.257812 L 20.25 9.257812 C 20.871094 9.257812 21.371094 9.757812 21.371094 10.378906 C 21.371094 10.996094 20.871094 11.496094 20.25 11.496094 L 13.5 11.496094 C 13.296875 11.507812 13.140625 11.675781 13.140625 11.878906 C 13.140625 12.078125 13.296875 12.246094 13.5 12.257812 L 18 12.257812 C 18.402344 12.242188 18.777344 12.445312 18.988281 12.785156 C 19.199219 13.128906 19.214844 13.554688 19.023438 13.90625 C 18.832031 14.261719 18.46875 14.484375 18.070312 14.496094 L 13.5 14.496094 C 13.289062 14.496094 13.121094 14.667969 13.121094 14.878906 C 13.121094 15.085938 13.289062 15.257812 13.5 15.257812 L 15 15.257812 C 15.605469 15.277344 16.085938 15.773438 16.085938 16.378906 C 16.085938 16.984375 15.605469 17.480469 15 17.496094 L 13.5 17.496094 C 13.289062 17.496094 13.121094 17.667969 13.121094 17.875 Z M 13.125 21.800781 "/>
</svg>
