<svg xmlns="http://www.w3.org/2000/svg" viewBox="0 0 24 24">
<path d="M 6.75 15.371094 C 6.132812 15.371094 5.628906 14.867188 5.628906 14.25 L 5.628906 12.75 C 5.628906 12.539062 5.460938 12.371094 5.25 12.371094 L 5.25 11.628906 C 5.867188 11.628906 6.371094 12.132812 6.371094 12.75 L 6.371094 14.25 C 6.371094 14.460938 6.539062 14.628906 6.75 14.628906 C 6.960938 14.628906 7.128906 14.460938 7.128906 14.25 L 7.128906 9.75 C 7.128906 9.410156 7.285156 9.085938 7.554688 8.871094 C 7.824219 8.660156 8.171875 8.582031 8.507812 8.660156 C 9.019531 8.785156 9.378906 9.246094 9.375 9.773438 L 9.375 14.25 C 9.375 14.367188 9.429688 14.476562 9.519531 14.546875 C 9.609375 14.621094 9.730469 14.644531 9.84375 14.621094 C 10.019531 14.570312 10.136719 14.40625 10.132812 14.226562 L 10.132812 9.75 C 10.132812 9.410156 10.289062 9.085938 10.554688 8.871094 C 10.824219 8.660156 11.175781 8.582031 11.507812 8.660156 C 12.019531 8.785156 12.382812 9.246094 12.375 9.773438 L 12.375 14.25 C 12.378906 14.367188 12.429688 14.476562 12.523438 14.546875 C 12.613281 14.621094 12.730469 14.644531 12.84375 14.621094 C 13.019531 14.570312 13.140625 14.40625 13.136719 14.226562 L 13.136719 9.75 C 13.121094 9.34375 13.332031 8.960938 13.683594 8.75 C 14.035156 8.542969 14.472656 8.542969 14.824219 8.75 C 15.175781 8.960938 15.386719 9.34375 15.375 9.75 L 15.375 14.25 C 15.375 14.367188 15.429688 14.476562 15.523438 14.546875 C 15.613281 14.621094 15.730469 14.648438 15.84375 14.621094 C 16.023438 14.570312 16.140625 14.40625 16.136719 14.226562 L 16.136719 9.75 C 16.136719 9.410156 16.292969 9.085938 16.558594 8.871094 C 16.828125 8.660156 17.179688 8.582031 17.511719 8.660156 C 18.023438 8.785156 18.382812 9.246094 18.378906 9.773438 L 18.378906 11.25 C 18.378906 11.460938 18.550781 11.628906 18.757812 11.628906 L 18.757812 12.371094 C 18.140625 12.371094 17.640625 11.867188 17.636719 11.25 L 17.636719 9.773438 C 17.644531 9.59375 17.523438 9.429688 17.347656 9.382812 C 17.234375 9.355469 17.117188 9.378906 17.023438 9.453125 C 16.933594 9.523438 16.878906 9.632812 16.878906 9.75 L 16.878906 14.226562 C 16.882812 14.757812 16.519531 15.222656 16.003906 15.347656 C 15.667969 15.421875 15.320312 15.34375 15.050781 15.132812 C 14.785156 14.917969 14.628906 14.59375 14.625 14.253906 L 14.625 9.75 C 14.632812 9.609375 14.5625 9.476562 14.441406 9.40625 C 14.320312 9.332031 14.171875 9.332031 14.050781 9.40625 C 13.929688 9.476562 13.859375 9.609375 13.867188 9.75 L 13.867188 14.226562 C 13.871094 14.753906 13.511719 15.214844 13 15.34375 C 12.667969 15.417969 12.316406 15.339844 12.046875 15.128906 C 11.78125 14.914062 11.625 14.59375 11.625 14.25 L 11.625 9.773438 C 11.628906 9.59375 11.511719 9.429688 11.332031 9.382812 C 11.21875 9.351562 11.097656 9.378906 11.007812 9.453125 C 10.917969 9.523438 10.863281 9.632812 10.863281 9.75 L 10.863281 14.226562 C 10.871094 14.753906 10.515625 15.214844 10.003906 15.347656 C 9.667969 15.421875 9.320312 15.34375 9.050781 15.132812 C 8.785156 14.917969 8.628906 14.59375 8.625 14.253906 L 8.625 9.773438 C 8.632812 9.59375 8.511719 9.429688 8.335938 9.382812 C 8.222656 9.355469 8.105469 9.378906 8.011719 9.453125 C 7.921875 9.523438 7.867188 9.632812 7.867188 9.75 L 7.867188 14.25 C 7.867188 14.867188 7.367188 15.367188 6.75 15.371094 Z M 6.75 15.371094 "/>
</svg>
