<svg xmlns="http://www.w3.org/2000/svg" viewBox="0 0 24 24">
<path d="M 12.75 15.371094 C 12.132812 15.371094 11.628906 14.867188 11.628906 14.25 L 11.628906 9.777344 C 11.632812 9.582031 11.496094 9.410156 11.300781 9.375 C 11.191406 9.359375 11.082031 9.390625 11 9.464844 C 10.917969 9.535156 10.871094 9.640625 10.871094 9.75 L 10.871094 12 L 10.128906 12 L 10.128906 9.75 C 10.128906 9.425781 10.269531 9.121094 10.511719 8.90625 C 10.757812 8.695312 11.078125 8.597656 11.398438 8.640625 C 11.960938 8.722656 12.375 9.210938 12.371094 9.777344 L 12.371094 14.25 C 12.363281 14.390625 12.433594 14.523438 12.554688 14.59375 C 12.675781 14.667969 12.824219 14.667969 12.945312 14.59375 C 13.066406 14.523438 13.136719 14.390625 13.128906 14.25 L 13.128906 12 L 13.871094 12 L 13.871094 14.25 C 13.871094 14.867188 13.367188 15.371094 12.75 15.371094 Z M 12.75 15.371094 "/>
</svg>
