<svg xmlns="http://www.w3.org/2000/svg" viewBox="0 0 24 24">
<path d="M 11.253906 15.371094 C 10.632812 15.371094 10.128906 14.871094 10.128906 14.25 L 10.128906 12.75 C 10.128906 12.539062 9.960938 12.371094 9.75 12.371094 L 9.75 11.628906 C 10.367188 11.632812 10.867188 12.132812 10.871094 12.75 L 10.871094 14.25 C 10.871094 14.359375 10.917969 14.464844 11 14.535156 C 11.085938 14.605469 11.195312 14.640625 11.300781 14.625 C 11.496094 14.589844 11.632812 14.417969 11.628906 14.222656 L 11.628906 9.75 C 11.628906 9.425781 11.769531 9.121094 12.011719 8.90625 C 12.257812 8.695312 12.578125 8.597656 12.898438 8.640625 C 13.464844 8.722656 13.878906 9.210938 13.871094 9.777344 L 13.871094 11.25 C 13.871094 11.460938 14.042969 11.628906 14.25 11.628906 L 14.25 12.371094 C 13.632812 12.371094 13.132812 11.867188 13.128906 11.25 L 13.128906 9.777344 C 13.136719 9.582031 13 9.410156 12.804688 9.375 C 12.695312 9.359375 12.585938 9.390625 12.503906 9.464844 C 12.421875 9.535156 12.375 9.640625 12.375 9.75 L 12.375 14.222656 C 12.382812 14.523438 12.269531 14.816406 12.058594 15.03125 C 11.847656 15.25 11.558594 15.371094 11.253906 15.371094 Z M 11.253906 15.371094 "/>
</svg>
