<svg xmlns="http://www.w3.org/2000/svg" viewBox="0 0 24 24">
<path d="M 12.75 15.371094 C 12.132812 15.367188 11.632812 14.867188 11.628906 14.25 L 11.628906 9.777344 C 11.632812 9.582031 11.496094 9.410156 11.300781 9.375 C 11.191406 9.359375 11.082031 9.390625 11 9.464844 C 10.917969 9.535156 10.871094 9.640625 10.871094 9.75 L 10.871094 14.222656 C 10.875 14.789062 10.460938 15.277344 9.898438 15.359375 C 9.578125 15.402344 9.257812 15.304688 9.011719 15.09375 C 8.769531 14.878906 8.628906 14.574219 8.628906 14.25 L 8.628906 12.75 C 8.628906 12.542969 8.460938 12.375 8.253906 12.371094 L 8.253906 11.628906 C 8.875 11.628906 9.375 12.132812 9.375 12.75 L 9.375 14.25 C 9.375 14.359375 9.425781 14.464844 9.507812 14.535156 C 9.589844 14.609375 9.699219 14.640625 9.808594 14.625 C 10 14.589844 10.140625 14.417969 10.132812 14.222656 L 10.132812 9.75 C 10.136719 9.425781 10.277344 9.121094 10.519531 8.90625 C 10.761719 8.695312 11.085938 8.597656 11.40625 8.640625 C 11.96875 8.722656 12.382812 9.210938 12.375 9.777344 L 12.375 14.25 C 12.386719 14.453125 12.554688 14.609375 12.753906 14.609375 C 12.957031 14.609375 13.125 14.453125 13.136719 14.25 L 13.136719 9.75 C 13.136719 9.425781 13.277344 9.121094 13.519531 8.90625 C 13.761719 8.695312 14.085938 8.597656 14.40625 8.640625 C 14.96875 8.722656 15.382812 9.210938 15.375 9.777344 L 15.375 11.25 C 15.375 11.460938 15.546875 11.628906 15.753906 11.628906 L 15.753906 12.371094 C 15.136719 12.371094 14.636719 11.867188 14.632812 11.25 L 14.632812 9.777344 C 14.640625 9.582031 14.5 9.410156 14.308594 9.375 C 14.199219 9.359375 14.089844 9.390625 14.007812 9.464844 C 13.921875 9.535156 13.875 9.640625 13.875 9.75 L 13.875 14.25 C 13.875 14.546875 13.757812 14.832031 13.546875 15.042969 C 13.332031 15.253906 13.046875 15.371094 12.75 15.371094 Z M 12.75 15.371094 "/>
</svg>
